# xmcd CD database file
#
# Track frame offsets:
#	179
#	8576
#	21010
#	32268
#	42327
#	57735
#	67133
#	77986
#	90417
#	99185
#	112258
#	122901
#	134980
#	147312
#	160561
#	171077
#	187814
#	197558
#	214266
#	222888
#	240516
#	253851
#	265084
#	277492
#
# Disc length: 3854 seconds
#
# Revision: 0
# Processed by: cddbd v1.5.2PL0 Copyright (c) Steve Scherf et al.
# Submitted via: jetAudio 7
#
DISCID=630f0c18
DTITLE=Arthur Fiedler and The Boston Pops Orchestra - The ''Pops'' Goes C
DTITLE=ountry and The Pops Goes West
DYEAR=1900
DGENRE=Country
TTITLE0=Country Gentleman
TTITLE1=Tennessee Waltz
TTITLE2=Alabama Jubilee
TTITLE3=Faded Love
TTITLE4=In The Pines - Wildwood Flower - On Top Of Old Smoky
TTITLE5=Windy And Warm
TTITLE6=I'll Fly Away
TTITLE7=Adios Amigo
TTITLE8=John Henry - Listen To The Mockingbird
TTITLE9=Cold, Cold Heart
TTITLE10=I'm Thinking Tonight Of My Blue Eyes
TTITLE11=Orange Blossom Special
TTITLE12=Deep In The Heart Of Texas
TTITLE13=High Noon (Do Not Forsake Me)
TTITLE14=Sweet Betsy From Pike
TTITLE15=San Antonio Rose
TTITLE16=Buttons And Bows
TTITLE17=Down In The Valley
TTITLE18=Bonanza
TTITLE19=Shenandoah
TTITLE20=The Hill Country Theme
TTITLE21=Mexicali Rose
TTITLE22=The Streets Of Laredo
TTITLE23=Don't Fence Me In
EXTD=
EXTT0=
EXTT1=
EXTT2=
EXTT3=
EXTT4=
EXTT5=
EXTT6=
EXTT7=
EXTT8=
EXTT9=
EXTT10=
EXTT11=
EXTT12=
EXTT13=
EXTT14=
EXTT15=
EXTT16=
EXTT17=
EXTT18=
EXTT19=
EXTT20=
EXTT21=
EXTT22=
EXTT23=
PLAYORDER=
